# xmcd
#
# Track frame offsets:
#	150
#	16547
#	28857
#	45250
#	58599
#	72149
#	84861
#	93935
#	108690
#	121946
#
# Disc length: 1814 seconds
#
# Revision: 0
# Processed by: cddbd v1.5.2PL0 Copyright (c) Steve Scherf et al.
# Submitted via: EasyCDDAExtractor 10.0.1.1
#
DISCID=6e07140a
DTITLE=Céline Dion - Céline Dion chante Noël
DYEAR=1900
DGENRE=
TTITLE0=01. Glory Alleluia
TTITLE1=02. Le petit renne au nez roug
TTITLE2=03. Petit Papa Noel
TTITLE3=04. Sainte Nuit
TTITLE4=05. Les enfants oublies
TTITLE5=06. Noel blanc
TTITLE6=07. Pere Noel arrive ce soir
TTITLE7=08. J'ai vu maman embrasser le
TTITLE8=09. Promenade en traineau
TTITLE9=10. Joyeux Noel
EXTD=
EXTT0=
EXTT1=
EXTT2=
EXTT3=
EXTT4=
EXTT5=
EXTT6=
EXTT7=
EXTT8=
EXTT9=
PLAYORDER=
